<?xml version="1.0" encoding="UTF-8"?>
<!DOCTYPE svg PUBLIC "-//W3C//DTD SVG 1.1//EN" "http://www.w3.org/Graphics/SVG/1.1/DTD/svg11.dtd">
<svg version="1.1" xmlns="http://www.w3.org/2000/svg" xmlns:xlink="http://www.w3.org/1999/xlink" x="0" y="0" width="651" height="248" viewBox="0, 0, 651, 248">
  <g id="Layer_1">
    <path d="M322.618,108.708 C326.851,108.708 330.639,109.376 334.427,110.936 C337.992,112.495 341.335,114.724 344.231,117.62 C347.128,120.517 349.356,123.859 350.916,127.424 C352.475,131.212 353.144,135 353.144,139.234 C353.144,143.467 352.475,147.255 350.916,151.043 C349.356,154.608 347.128,157.951 344.231,160.847 C341.335,163.744 337.992,165.972 334.427,167.532 C330.639,169.092 326.851,169.76 322.618,169.76 C318.384,169.76 314.373,169.092 310.808,167.532 C307.243,165.972 303.901,163.744 301.004,160.847 C298.108,157.951 295.879,154.608 294.32,151.043 C292.76,147.255 292.091,143.467 292.091,139.234 C292.091,135 292.76,131.212 294.32,127.424 C295.879,123.859 298.108,120.517 301.004,117.62 C303.901,114.724 307.243,112.495 310.808,110.936 C314.373,109.376 318.384,108.708 322.618,108.708 z M322.618,201.846 C325.514,201.846 328.634,201.623 331.53,201.178 C334.427,200.732 337.101,200.064 339.998,199.395 C342.894,198.727 345.568,197.613 348.019,196.498 C350.47,195.384 353.144,194.047 355.595,192.488 C359.828,189.814 363.839,186.694 367.404,182.906 C370.969,179.118 374.089,174.885 376.986,170.206 C379.882,165.527 381.888,160.624 383.225,155.5 C384.561,150.375 385.23,144.804 385.23,139.234 C385.23,133.663 384.561,128.316 383.225,123.191 C381.888,118.066 379.882,113.164 376.986,108.485 C374.089,103.806 370.969,99.572 367.404,95.784 C363.839,91.996 359.828,88.877 355.595,86.203 C353.144,84.643 350.47,83.306 348.019,82.192 C345.568,81.078 342.894,79.964 339.998,79.295 C337.101,78.627 334.427,77.958 331.53,77.513 C328.634,77.067 325.514,76.844 322.618,76.844 C317.047,76.844 311.7,77.513 306.575,78.85 C301.45,80.187 296.548,82.192 291.869,84.866 C287.189,87.763 282.956,90.882 279.168,94.447 C275.38,98.012 272.26,102.023 269.587,106.257 C268.027,108.708 266.69,111.381 265.576,113.832 C264.462,116.283 263.348,118.957 262.679,121.854 C262.011,124.751 261.342,127.424 260.897,130.321 C260.451,133.218 260.228,136.337 260.228,139.234 C260.228,144.804 260.897,150.375 262.234,155.5 C263.57,160.624 265.576,165.527 268.25,170.206 C271.146,174.885 274.266,179.118 277.831,182.906 C281.396,186.694 285.407,189.814 289.64,192.488 C292.091,194.047 294.542,195.384 297.216,196.498 C299.667,197.613 302.341,198.727 305.238,199.395 C308.134,200.064 310.808,200.732 313.705,201.178 C316.602,201.623 319.721,201.846 322.618,201.846 z" fill="#333333"/>
    <path d="M421.803,-0 L627.153,-0 C640.176,-0 650.733,10.365 650.733,23.151 L650.733,224.763 C650.733,237.549 640.176,247.914 627.153,247.914 L421.803,247.914 C408.78,247.914 398.223,237.549 398.223,224.763 L398.223,23.151 C398.223,10.365 408.78,-0 421.803,-0 z" fill="#333333"/>
    <path d="M494.443,114.743 C494.443,118.1 493.804,121.298 492.684,124.336 C491.565,127.374 489.806,130.092 487.408,132.491 C485.01,134.889 482.451,136.808 479.573,138.087 C476.695,139.366 473.657,140.006 470.299,140.006 C466.941,140.006 463.903,139.366 460.865,138.247 C457.827,136.968 455.269,135.049 452.871,132.651 C450.472,130.252 448.714,127.534 447.594,124.496 C446.475,121.458 445.835,118.1 445.835,114.743 C445.835,111.385 446.475,108.187 447.594,105.149 C448.714,102.111 450.472,99.393 452.871,96.994 C455.269,94.596 457.827,92.677 460.865,91.398 C463.744,90.119 466.782,89.479 470.139,89.479 C473.497,89.479 476.535,90.119 479.413,91.398 C482.291,92.677 484.85,94.596 487.248,96.994 C489.646,99.393 491.405,102.111 492.525,105.149 C493.644,108.187 494.283,111.385 494.443,114.743 z M494.443,35.275 L494.443,82.444 C493.164,80.845 491.725,79.246 489.966,77.807 C488.207,76.368 486.449,75.089 484.37,73.81 C482.291,72.69 479.893,71.571 477.494,70.772 C475.096,69.972 472.378,69.333 469.66,69.333 L468.86,69.333 C468.54,69.333 468.221,69.333 468.061,69.173 L466.302,69.173 C462.944,69.173 459.746,69.652 456.388,70.452 C453.031,71.251 449.833,72.69 446.475,74.449 C443.117,76.208 440.239,78.287 437.521,80.685 C434.963,83.083 432.564,85.962 430.486,89 C429.366,90.758 428.407,92.517 427.448,94.276 C426.648,96.195 425.849,98.114 425.209,100.192 C424.569,102.271 424.09,104.349 423.77,106.748 C423.45,109.146 423.29,111.385 423.29,113.783 C423.29,118.74 423.77,123.217 424.889,127.214 C426.009,131.372 427.448,135.209 429.526,138.567 C431.605,141.925 433.843,144.803 436.562,147.521 C439.12,150.079 441.838,152.478 445.036,154.076 L450.153,156.635 C451.911,157.274 453.83,157.914 455.589,158.394 C457.348,158.873 459.267,159.353 461.025,159.673 C462.944,159.833 464.863,159.993 466.622,159.993 L467.421,159.993 L468.381,159.993 C470.779,159.993 473.337,159.673 475.736,158.873 C478.134,158.074 480.692,156.955 483.091,155.835 C485.489,154.716 487.568,153.277 489.487,151.678 C491.565,150.079 493.324,148.32 495.083,146.242 C496.042,149.12 497.002,151.678 497.641,153.757 L499.24,159.193 L518.108,159.193 L518.108,35.435 C514.11,35.435 506.275,35.435 494.443,35.275 z" fill="#FEFEFE"/>
    <path d="M572.006,93.157 C575.044,93.157 577.762,93.636 580.48,94.756 C583.039,95.875 585.437,97.474 587.516,99.553 C589.594,101.631 591.193,104.03 592.312,106.588 C593.432,109.306 593.911,112.024 593.911,115.062 C593.911,118.1 593.432,120.819 592.312,123.537 C591.193,126.095 589.594,128.493 587.516,130.572 C585.437,132.651 583.039,134.25 580.48,135.369 C577.762,136.488 575.044,136.968 572.006,136.968 C568.968,136.968 566.09,136.488 563.531,135.369 C560.973,134.25 558.575,132.651 556.496,130.572 C554.417,128.493 552.819,126.095 551.699,123.537 C550.58,120.819 550.1,118.1 550.1,115.062 C550.1,112.024 550.58,109.306 551.699,106.588 C552.819,104.03 554.417,101.631 556.496,99.553 C558.575,97.474 560.973,95.875 563.531,94.756 C566.09,93.636 568.968,93.157 572.006,93.157 z M572.006,159.993 C574.084,159.993 576.323,159.833 578.402,159.513 C580.48,159.193 582.399,158.713 584.478,158.234 C586.556,157.754 588.475,156.955 590.234,156.155 C591.993,155.356 593.911,154.396 595.67,153.277 C598.708,151.358 601.586,149.12 604.145,146.402 C606.703,143.683 608.941,140.645 611.02,137.288 C613.099,133.93 614.538,130.412 615.497,126.735 C616.456,123.057 616.936,119.06 616.936,115.062 C616.936,111.065 616.456,107.227 615.497,103.55 C614.538,99.872 613.099,96.355 611.02,92.997 C608.941,89.639 606.703,86.601 604.145,83.883 C601.586,81.165 598.708,78.926 595.67,77.007 C593.911,75.888 591.993,74.929 590.234,74.129 C588.475,73.33 586.556,72.53 584.478,72.051 C582.399,71.571 580.48,71.091 578.402,70.772 C576.323,70.452 574.084,70.292 572.006,70.292 C568.008,70.292 564.171,70.772 560.493,71.731 C556.816,72.69 553.298,74.129 549.94,76.048 C546.583,78.127 543.545,80.365 540.826,82.924 C538.108,85.482 535.87,88.36 533.951,91.398 C532.832,93.157 531.872,95.076 531.073,96.834 C530.273,98.593 529.474,100.512 528.994,102.591 C528.515,104.669 528.035,106.588 527.715,108.667 C527.395,110.745 527.235,112.984 527.235,115.062 C527.235,119.06 527.715,123.057 528.674,126.735 C529.634,130.412 531.073,133.93 532.992,137.288 C535.07,140.645 537.309,143.683 539.867,146.402 C542.425,149.12 545.304,151.358 548.341,153.277 C550.1,154.396 551.859,155.356 553.778,156.155 C555.537,156.955 557.455,157.754 559.534,158.234 C561.613,158.713 563.531,159.193 565.61,159.513 C567.689,159.833 569.927,159.993 572.006,159.993 z" fill="#FEFEFE"/>
    <path d="M495.078,200.732 L595.216,200.732 L595.216,176.932 L495.078,176.932 z" fill="#F1246C"/>
    <path d="M59.205,201.846 C62.102,201.846 65.221,201.623 68.118,201.4 C71.015,200.955 73.688,200.286 76.585,199.618 C79.482,198.949 82.156,197.835 84.829,196.721 C87.503,195.607 90.177,194.493 92.628,192.933 C96.416,190.705 99.535,188.031 102.432,185.135 C105.329,182.238 108.003,178.896 110.008,175.108 C112.013,171.765 113.35,168.423 114.242,164.858 C115.133,161.293 115.578,157.728 115.578,153.94 L115.578,151.266 C115.578,147.033 114.91,143.245 113.35,139.457 C112.013,135.669 110.231,132.104 107.78,128.761 C105.329,125.419 102.655,122.3 99.313,119.626 C96.193,116.952 92.628,114.501 88.394,112.718 L84.829,111.159 L80.596,109.599 C79.036,108.93 77.476,108.485 75.917,108.039 C74.357,107.593 72.574,107.148 70.792,106.479 L64.553,104.474 L58.314,102.246 L52.298,100.018 L47.173,97.567 C46.059,96.898 44.945,96.23 44.053,95.338 C42.939,94.67 42.048,93.779 41.38,92.887 C40.711,91.773 40.043,90.882 39.597,89.768 C39.151,88.877 38.929,87.985 38.706,86.871 C38.483,85.757 38.706,84.42 38.929,83.306 C39.151,82.192 39.374,81.078 40.043,79.964 C40.711,78.85 41.38,77.736 42.271,76.844 C43.162,75.73 44.276,74.839 45.39,73.725 C46.282,73.056 47.173,72.388 48.287,71.942 C49.178,71.274 50.07,70.828 51.184,70.605 L54.526,69.714 C55.64,69.491 56.977,69.491 58.091,69.491 C60.988,69.491 63.662,69.937 66.335,70.605 C69.232,71.274 71.906,72.388 74.58,73.725 L81.487,77.29 L85.943,80.187 L91.291,83.752 C95.525,77.736 98.867,72.388 102.209,67.709 L110.231,56.345 L105.106,53.003 L93.074,45.65 C89.509,43.421 85.275,41.862 81.487,40.302 C77.699,38.742 73.688,37.851 69.9,37.183 C66.113,36.514 62.325,36.068 58.537,36.068 C54.303,36.068 50.515,36.514 46.95,37.183 C43.385,37.851 40.043,38.965 37.146,40.525 L29.57,44.536 C27.565,45.65 25.782,46.987 24.445,48.101 C21.103,50.775 17.984,53.671 15.533,57.013 C13.082,60.133 10.853,63.475 9.294,67.263 C7.734,71.051 6.62,74.616 5.951,78.404 C5.283,82.192 5.283,86.203 5.728,90.214 C5.951,94.001 6.843,97.789 8.18,101.355 C9.516,104.92 11.299,108.262 13.75,111.604 C16.201,114.947 18.875,117.62 21.771,120.071 C24.891,122.522 28.233,124.751 32.021,126.756 C34.027,127.87 36.255,128.761 38.483,129.653 C40.934,130.767 43.385,131.658 45.836,132.549 L60.319,137.674 L68.564,140.348 L72.129,141.685 L74.58,142.799 C75.248,143.022 76.139,143.467 77.031,144.136 L79.705,146.141 C80.596,146.81 81.264,147.924 81.71,149.038 C82.156,150.152 82.378,151.266 82.601,152.603 C82.601,153.717 82.378,154.608 82.156,155.722 C81.933,156.837 81.487,157.728 80.819,158.842 C80.15,159.956 79.482,160.847 78.813,161.516 C77.922,162.184 77.031,163.075 75.917,163.744 L71.906,165.749 C70.569,166.418 69.232,166.863 67.895,167.086 L63.439,167.978 C61.879,168.2 60.542,168.2 58.982,168.2 C54.749,168.2 50.961,167.755 47.173,166.641 C43.385,165.749 39.82,164.412 36.478,162.407 L28.679,157.728 C26.674,156.614 25.337,155.722 24.668,155.054 L19.543,151.043 L7.734,166.418 C4.392,170.651 1.718,174.439 -0.733,177.336 L4.169,181.57 L8.402,184.466 L14.864,188.7 C17.315,190.259 20.212,191.596 23.331,193.156 C26.451,194.716 29.793,196.053 33.358,197.167 C35.363,197.835 37.369,198.504 39.374,198.949 C41.38,199.618 43.608,200.064 45.836,200.509 C47.841,200.955 50.07,201.4 52.521,201.623 C54.749,201.846 56.977,201.846 59.205,201.846 z" fill="#333333"/>
    <path d="M249.286,129.653 C249.286,121.408 248.172,114.278 246.167,107.816 C244.161,101.577 240.819,96.007 236.585,91.328 C232.352,86.648 227.227,83.306 221.434,80.855 C215.64,78.404 208.956,77.29 201.603,77.29 L198.706,77.29 L197.369,77.29 C196.924,77.29 196.478,77.29 196.032,77.513 C192.69,77.736 189.793,78.181 186.897,79.295 C184,80.409 181.103,81.746 178.429,83.306 C175.756,84.866 173.305,86.871 170.854,88.877 C168.625,90.882 166.397,93.333 164.392,95.784 L164.392,30.275 L130.969,30.275 L130.969,129.653 C130.969,158.173 130.969,181.792 131.192,200.732 L164.392,200.732 L164.392,146.364 C164.392,141.239 165.06,136.337 166.174,131.881 C167.288,127.647 168.848,123.636 171.299,120.071 C173.75,116.283 176.647,113.61 180.212,111.827 C183.777,110.044 188.011,109.153 193.136,109.153 C196.701,109.153 199.82,109.599 202.717,110.713 C205.613,111.604 208.287,112.941 210.293,114.946 C212.298,116.952 214.081,119.626 215.195,122.968 C216.309,126.31 216.754,130.544 216.754,135.223 L216.754,200.732 L249.286,200.732 z" fill="#333333"/>
  </g>
</svg>
